<?xml version="1.0" encoding="UTF-8" standalone="no"?>
<!-- Created with Inkscape (http://www.inkscape.org/) -->

<svg
   width="45.084473mm"
   height="72.660309mm"
   viewBox="0 0 45.084474 72.660317"
   version="1.1"
   id="svg1049"
   inkscape:version="1.1.2 (0a00cf5339, 2022-02-04)"
   sodipodi:docname="document.svg"
   xmlns:inkscape="http://www.inkscape.org/namespaces/inkscape"
   xmlns:sodipodi="http://sodipodi.sourceforge.net/DTD/sodipodi-0.dtd"
   xmlns="http://www.w3.org/2000/svg"
   xmlns:svg="http://www.w3.org/2000/svg">
  <sodipodi:namedview
     id="namedview1051"
     pagecolor="#ffffff"
     bordercolor="#666666"
     borderopacity="1.0"
     inkscape:pageshadow="2"
     inkscape:pageopacity="0.0"
     inkscape:pagecheckerboard="0"
     inkscape:document-units="mm"
     showgrid="false"
     units="mm"
     fit-margin-top="1"
     fit-margin-right="1"
     fit-margin-left="1"
     fit-margin-bottom="1"
     inkscape:zoom="0.64052329"
     inkscape:cx="44.494869"
     inkscape:cy="379.37731"
     inkscape:window-width="1920"
     inkscape:window-height="1025"
     inkscape:window-x="0"
     inkscape:window-y="0"
     inkscape:window-maximized="1"
     inkscape:current-layer="layer1" />
  <defs
     id="defs1046" />
  <g
     inkscape:label="Στρώση 1"
     inkscape:groupmode="layer"
     id="layer1"
     transform="translate(-93.467203,-48.124934)">
    <rect
       style="fill:#ffffff;stroke:#000000;stroke-width:0.264583"
       id="rect1451"
       width="42.819889"
       height="70.395729"
       x="94.599495"
       y="49.257225" />
    <path
       style="fill:none;stroke:#000000;stroke-width:0.264583px;stroke-linecap:butt;stroke-linejoin:miter;stroke-opacity:1"
       d="m 100.19937,64.185072 c 3.10025,-1.321277 8.96704,-8.169937 12.52472,-4.019302 0.55824,0.651278 2.14071,4.755415 2.44764,4.92609 2.21387,1.231082 4.76068,-3.248152 6.46516,-3.717664 0.54298,-0.149566 0.39928,1.087046 0.78801,1.494581 0.77029,0.807564 4.47433,-0.413072 5.76611,-0.413072"
       id="path1488" />
    <path
       style="fill:none;stroke:#000000;stroke-width:0.264583px;stroke-linecap:butt;stroke-linejoin:miter;stroke-opacity:1"
       d="m 102.78211,72.918274 c 2.88665,1.698032 7.96698,-0.672147 10.91197,0.380929 0.69556,0.248724 0.33698,1.559795 1.15415,1.827884 1.16767,0.383077 4.14654,0.271873 5.36996,0 3.99126,-0.886947 0.54697,-0.826148 2.06015,-0.826148 0.80715,0 -0.22719,-0.04948 1.41442,0.781688 0.76865,0.389178 1.36503,-0.463905 1.36503,0.773781"
       id="path1490" />
    <path
       style="fill:none;stroke:#000000;stroke-width:0.264583px;stroke-linecap:butt;stroke-linejoin:miter;stroke-opacity:1"
       d="m 103.02213,86.188406 c 4.07963,0 8.15925,0 12.23887,0 0.51782,0 1.8921,-0.200607 2.44744,0 0.84527,0.305348 0.0616,2.647439 1.03696,2.972459 0.98732,0.329014 4.07308,0.2838 5.21183,0 1.64041,-0.408818 0.18994,-0.246124 1.22132,-0.813401 0.90037,-0.495218 2.39992,0.11965 3.45501,-0.407895"
       id="path1492" />
    <path
       style="fill:none;stroke:#000000;stroke-width:0.264583px;stroke-linecap:butt;stroke-linejoin:miter;stroke-opacity:1"
       d="m 103.05175,99.569319 c 1.62034,0.280268 2.85437,-0.413073 4.42786,-0.413073 2.16924,0 0.37446,0.229132 2.47845,-0.826148 0.82917,-0.41588 4.54886,-0.101134 5.3186,0.413075 1.45088,0.969233 1.13837,3.590077 2.08284,5.009247 0.89213,1.34052 7.37696,1.1099 8.30295,0.18386"
       id="path1494" />
    <path
       style="fill:none;stroke:#000000;stroke-width:0.264583px;stroke-linecap:butt;stroke-linejoin:miter;stroke-opacity:1"
       d="m 100.45882,109.27403 c 2.44181,-0.27863 13.50297,-2.04932 15.54722,-0.005 0.38379,0.38379 -0.28603,4.87976 0,5.77291 0.52993,1.65473 4.19989,-0.49414 4.78426,-0.76847 0.84121,-0.39492 1.45613,0.0907 2.32452,-0.77767"
       id="path1496" />
  </g>
</svg>
